<svg width="25" height="25" viewBox="0 0 25 25" fill="none" xmlns="http://www.w3.org/2000/svg">
<path d="M12.6242 4.47508C11.5806 4.47508 10.5472 4.68092 9.58298 5.08084C8.61881 5.48076 7.74273 6.06693 7.00478 6.80589C5.51443 8.29827 4.67716 10.3224 4.67716 12.4329C4.67021 14.2705 5.3056 16.0526 6.47318 17.4703L4.88378 19.0618C4.77351 19.1737 4.69881 19.3159 4.66911 19.4702C4.63941 19.6246 4.65604 19.7843 4.71689 19.9293C4.7829 20.0724 4.8899 20.1928 5.02432 20.2749C5.15874 20.3571 5.31451 20.3974 5.47186 20.3908H12.6242C14.7319 20.3908 16.7532 19.5524 18.2436 18.06C19.7339 16.5676 20.5712 14.5435 20.5712 12.4329C20.5712 10.3224 19.7339 8.29827 18.2436 6.80589C16.7532 5.3135 14.7319 4.47508 12.6242 4.47508ZM12.6242 18.7992H7.38709L8.12616 18.0592C8.27418 17.9101 8.35726 17.7084 8.35726 17.4981C8.35726 17.2879 8.27418 17.0862 8.12616 16.9371C7.08557 15.8962 6.43756 14.5263 6.29254 13.0607C6.14752 11.595 6.51446 10.1244 7.33085 8.89927C8.14723 7.67417 9.36255 6.77042 10.7697 6.34198C12.1769 5.91354 13.689 5.98692 15.0482 6.54963C16.4074 7.11234 17.5297 8.12955 18.224 9.42797C18.9182 10.7264 19.1414 12.2257 18.8555 13.6704C18.5696 15.1151 17.7924 16.4159 16.6561 17.3511C15.5199 18.2863 14.095 18.7981 12.6242 18.7992Z" fill="#535353"/>
</svg>
