<svg width="25" height="25" viewBox="0 0 25 25" fill="none" xmlns="http://www.w3.org/2000/svg">
<path d="M12.5351 20.3843C11.9577 19.8788 11.305 19.3529 10.6147 18.7935H10.6058C8.17505 16.8314 5.42022 14.6113 4.20351 11.9511C3.80378 11.1042 3.59194 10.1827 3.58216 9.24845C3.5795 7.96648 4.10034 6.73756 5.02701 5.83943C5.95368 4.94129 7.20794 4.44977 8.50631 4.47594C9.56333 4.47758 10.5976 4.77915 11.4858 5.34471C11.8762 5.59479 12.2293 5.89731 12.5351 6.24354C12.8427 5.89867 13.196 5.59633 13.5853 5.34471C14.4733 4.77904 15.5073 4.47745 16.564 4.47594C17.8623 4.44977 19.1167 4.94129 20.0433 5.83943C20.97 6.73756 21.4908 7.96648 21.4881 9.24845C21.479 10.1842 21.2672 11.1073 20.8668 11.9555C19.6501 14.6158 16.8961 16.835 14.4654 18.7935L14.4565 18.8005C13.7653 19.3564 13.1135 19.8823 12.536 20.3914L12.5351 20.3843ZM8.50631 6.24354C7.67235 6.23323 6.86799 6.5483 6.26807 7.12026C5.69005 7.68073 5.367 8.44865 5.3727 9.24845C5.38291 9.92941 5.53914 10.6005 5.83116 11.2176C6.40551 12.3653 7.18048 13.4041 8.12044 14.2861C9.00768 15.1699 10.0283 16.0254 10.9111 16.7448C11.1555 16.9437 11.4044 17.1443 11.6533 17.3449L11.8099 17.4713C12.049 17.664 12.2961 17.8637 12.5351 18.0599L12.5468 18.0493L12.5522 18.0449H12.5575L12.5656 18.0387H12.5701H12.5745L12.5906 18.0254L12.6274 17.9963L12.6336 17.991L12.6435 17.9839H12.6488L12.6569 17.9768L13.2514 17.4952L13.4072 17.3688C13.6587 17.1664 13.9076 16.9658 14.152 16.7669C15.0348 16.0475 16.0563 15.1929 16.9436 14.3047C17.8837 13.4232 18.6587 12.3846 19.2329 11.237C19.5302 10.6146 19.6887 9.93648 19.6976 9.24845C19.7013 8.45111 19.3784 7.68615 18.8022 7.12733C18.2035 6.55279 17.3989 6.23512 16.564 6.24354C15.545 6.23498 14.571 6.65659 13.887 7.40219L12.5351 8.94L11.1832 7.40219C10.4993 6.65659 9.52524 6.23498 8.50631 6.24354Z" fill="#535353"/>
</svg>
