<svg width="25" height="25" viewBox="0 0 25 25" fill="none" xmlns="http://www.w3.org/2000/svg">
<g clip-path="url(#clip0_0_41)">
<path d="M11.0525 14.2229L20.8005 4.47488" stroke="#535353" stroke-width="1.19373" stroke-linecap="round" stroke-linejoin="round"/>
<path d="M20.8008 4.47495L15.0406 20.4262C15.0017 20.5111 14.9393 20.583 14.8607 20.6334C14.7822 20.6838 14.6908 20.7106 14.5975 20.7106C14.5042 20.7106 14.4128 20.6838 14.3342 20.6334C14.2557 20.583 14.1933 20.5111 14.1544 20.4262L11.0528 14.2229L4.84948 11.1213C4.76464 11.0824 4.69274 11.02 4.64233 10.9415C4.59193 10.8629 4.56513 10.7715 4.56513 10.6782C4.56513 10.5849 4.59193 10.4935 4.64233 10.415C4.69274 10.3364 4.76464 10.274 4.84948 10.2351L20.8008 4.47495Z" stroke="#535353" stroke-width="1.19373" stroke-linecap="round" stroke-linejoin="round"/>
</g>
<defs>
<clipPath id="clip0_0_41">
<rect width="23.8746" height="23.8746" fill="white" transform="translate(0.904655 0.495514)"/>
</clipPath>
</defs>
</svg>
