<svg width="279" height="320" viewBox="0 0 279 320" fill="none" xmlns="http://www.w3.org/2000/svg">
<g clip-path="url(#clip0_10_64)">
<path d="M616.513 -313.211H-337.513V636.606H616.513V-313.211Z" fill="white"/>
<path d="M616.513 -313.211H-337.513V636.606H616.513V-313.211Z" fill="white"/>
<path d="M616.513 -313.211H-337.513V636.606H616.513V-313.211Z" fill="white"/>
<path d="M236.892 226.996H251.668V36.687H236.892V226.996Z" fill="white"/>
<path d="M236.892 226.996V229.157H251.668C252.239 229.157 252.799 228.924 253.205 228.523C253.608 228.122 253.842 227.565 253.842 226.996V36.6872C253.842 36.1146 253.608 35.5573 253.205 35.1565C252.799 34.7519 252.239 34.5229 251.668 34.5229H236.892C236.32 34.5229 235.761 34.7519 235.354 35.1565C234.952 35.5573 234.722 36.1146 234.722 36.6872V226.996C234.722 227.565 234.952 228.122 235.354 228.523C235.761 228.924 236.32 229.157 236.892 229.157V226.996H239.066V38.8477H249.498V224.832H236.892V226.996Z" fill="#E7E7E7"/>
<path d="M27.4202 226.996H42.1965V36.687H27.4202V226.996Z" fill="white"/>
<path d="M27.4202 226.996V229.157H42.1965C42.7678 229.157 43.3276 228.924 43.734 228.523C44.1365 228.122 44.3704 227.565 44.3704 226.996V36.6872C44.3704 36.1146 44.1365 35.5573 43.734 35.1565C43.3276 34.7519 42.7678 34.5229 42.1965 34.5229H27.4202C26.849 34.5229 26.2892 34.7519 25.8828 35.1565C25.4802 35.5573 25.2502 36.1146 25.2502 36.6872V226.996C25.2502 227.565 25.4802 228.122 25.8828 228.523C26.2892 228.924 26.849 229.157 27.4202 229.157V226.996H29.5941V38.8477H40.0265V224.832H27.4202V226.996Z" fill="#E7E7E7"/>
<path d="M19.5989 302.254C19.5989 304.162 21.1555 305.716 23.0763 305.716H256.016C257.933 305.716 259.493 304.162 259.493 302.254V211.426C259.493 209.513 257.933 207.964 256.016 207.964H23.0763C21.1555 207.964 19.5989 209.513 19.5989 211.426V302.254Z" fill="white"/>
<path d="M19.5988 302.254H17.4249C17.4211 303.8 18.0614 305.216 19.0812 306.228C20.0934 307.243 21.5197 307.877 23.0763 307.877H256.016C257.568 307.877 258.991 307.243 260.007 306.228C261.027 305.216 261.663 303.8 261.663 302.254V211.426C261.663 209.877 261.027 208.457 260.007 207.449C258.991 206.434 257.568 205.8 256.016 205.804H23.0763C21.5197 205.8 20.0934 206.434 19.0812 207.449C18.0614 208.457 17.4211 209.877 17.4249 211.426V302.254H21.7727V211.426C21.7727 211.056 21.9146 210.751 22.1523 210.507C22.3977 210.266 22.7082 210.129 23.0763 210.129H256.016C256.38 210.129 256.694 210.266 256.936 210.507C257.177 210.751 257.315 211.056 257.319 211.426V302.254C257.315 302.621 257.177 302.926 256.936 303.17C256.694 303.407 256.38 303.548 256.016 303.552H23.0763C22.7082 303.548 22.3977 303.407 22.1523 303.17C21.9146 302.926 21.7727 302.621 21.7727 302.254H19.5988Z" fill="#E7E7E7"/>
<path d="M231.93 100.933H268.883L253.247 36.9544H220.758L231.93 100.933Z" fill="white"/>
<path d="M231.93 100.933V103.093H268.883C269.55 103.093 270.175 102.792 270.589 102.269C271.003 101.742 271.152 101.067 270.995 100.418L255.356 36.4431C255.119 35.4697 254.248 34.7903 253.248 34.7903H220.758C220.114 34.7903 219.512 35.0727 219.094 35.5613C218.68 36.0499 218.508 36.695 218.615 37.3248L229.791 101.299C229.971 102.334 230.872 103.093 231.93 103.093V100.933L234.07 100.563L223.342 39.1151H251.541L266.115 98.7687H231.93V100.933Z" fill="#E7E7E7"/>
<path d="M194.974 100.933H231.93L220.758 36.9544H188.269L194.974 100.933Z" fill="white"/>
<path d="M194.974 100.933V103.093H231.93C232.575 103.093 233.18 102.815 233.594 102.326C234.008 101.83 234.181 101.193 234.07 100.563L222.901 36.5805C222.717 35.5461 221.816 34.7903 220.758 34.7903H188.269C187.655 34.7903 187.069 35.0498 186.658 35.5079C186.248 35.9583 186.045 36.5729 186.11 37.176L192.812 101.154C192.927 102.258 193.859 103.093 194.974 103.093V100.933L197.137 100.708L190.68 39.1151H218.933L229.346 98.7687H194.974V100.933Z" fill="#E7E7E7"/>
<path d="M158.022 100.933H194.974L188.269 36.9544H155.787L158.022 100.933Z" fill="white"/>
<path d="M158.022 100.933V103.093H194.974C195.588 103.093 196.178 102.83 196.588 102.38C196.999 101.925 197.198 101.315 197.137 100.708L190.435 36.7294C190.316 35.6262 189.384 34.7903 188.269 34.7903H155.787C155.2 34.7903 154.633 35.0308 154.226 35.4506C153.816 35.8705 153.594 36.4431 153.617 37.0271L155.848 101.006C155.89 102.174 156.853 103.093 158.022 103.093V100.933L160.196 100.857L158.037 39.1151H186.31L192.563 98.7687H158.022V100.933Z" fill="#E7E7E7"/>
<path d="M121.07 100.933H158.022L155.787 36.9544H123.301L121.07 100.933Z" fill="white"/>
<path d="M121.07 100.933V103.093H158.022C158.609 103.093 159.176 102.857 159.583 102.433C159.997 102.009 160.215 101.441 160.196 100.857L157.961 36.8782C157.919 35.7102 156.964 34.7903 155.787 34.7903H123.301C122.128 34.7903 121.17 35.7102 121.131 36.8782L118.896 100.857C118.877 101.441 119.095 102.009 119.502 102.433C119.916 102.857 120.479 103.093 121.07 103.093V100.933L123.24 101.006L125.402 39.1151H153.69L155.772 98.7687H121.07V100.933Z" fill="#E7E7E7"/>
<path d="M84.1138 100.933H121.07L123.301 36.9544H90.8157L84.1138 100.933Z" fill="white"/>
<path d="M84.1138 100.933V103.093H121.07C122.239 103.093 123.198 102.174 123.24 101.006L125.471 37.0271C125.494 36.4431 125.272 35.8705 124.866 35.4506C124.455 35.0308 123.892 34.7903 123.301 34.7903H90.8157C89.7 34.7903 88.7683 35.6262 88.6533 36.7294L81.9553 100.708C81.8901 101.315 82.0933 101.925 82.5035 102.38C82.9138 102.83 83.5004 103.093 84.1138 103.093V100.933L86.2762 101.154L92.7749 39.1151H121.051L118.969 98.7687H84.1138V100.933Z" fill="#E7E7E7"/>
<path d="M47.1578 100.933H84.1138L90.8157 36.9544H58.3301L47.1578 100.933Z" fill="white"/>
<path d="M47.1577 100.933V103.093H84.1138C85.2295 103.093 86.1612 102.258 86.2762 101.154L92.978 37.176C93.0394 36.5729 92.8362 35.9583 92.4298 35.5079C92.0195 35.0498 91.4291 34.7903 90.8157 34.7903H58.3301C57.2719 34.7903 56.367 35.5461 56.1868 36.5805L45.0184 100.563C44.9072 101.193 45.0797 101.83 45.4938 102.326C45.9078 102.815 46.5136 103.093 47.1577 103.093V100.933L49.301 101.299L60.155 39.1151H88.4041L82.1546 98.7687H47.1577V100.933Z" fill="#E7E7E7"/>
<path d="M10.2094 100.933H47.1578L58.3301 36.9544H25.8406L10.2094 100.933Z" fill="white"/>
<path d="M10.2093 100.933V103.093H47.1577C48.2159 103.093 49.1169 102.334 49.3009 101.299L60.4694 37.321C60.5768 36.695 60.4081 36.0499 59.9902 35.5613C59.5761 35.0727 58.9703 34.7903 58.33 34.7903H25.8406C24.8361 34.7903 23.9658 35.4697 23.7281 36.4431L8.09678 100.418C7.93575 101.067 8.08528 101.746 8.49552 102.269C8.90959 102.792 9.53837 103.093 10.2093 103.093V100.933L12.318 101.444L27.5467 39.1151H55.7459L45.3327 98.7687H10.2093V100.933Z" fill="#E7E7E7"/>
<path d="M268.86 100.933C268.863 101.025 268.883 101.117 268.883 101.212C268.883 107.27 260.613 112.178 250.403 112.178C240.204 112.178 231.93 107.27 231.93 101.212C231.93 101.117 231.95 101.025 231.953 100.933H268.86Z" fill="white"/>
<path d="M268.86 100.933L266.69 101.047C266.697 101.2 266.709 101.288 266.713 101.314V101.326L267.832 101.211H266.709L266.713 101.326L267.832 101.211H266.709C266.705 102.227 266.375 103.211 265.658 104.227C264.589 105.742 262.587 107.235 259.923 108.296C257.266 109.368 253.968 110.017 250.403 110.017C245.652 110.017 241.377 108.853 238.456 107.105C236.987 106.238 235.872 105.238 235.155 104.227C234.434 103.211 234.104 102.227 234.1 101.211H232.839L234.1 101.307V101.211H232.839L234.1 101.307L233.637 101.272L234.1 101.322V101.307L233.637 101.272L234.1 101.322C234.1 101.311 234.112 101.219 234.123 101.047L231.953 100.933V103.093H268.86V100.933V98.7684H231.953C230.799 98.7684 229.845 99.6654 229.783 100.814L230.592 100.86L229.787 100.769L229.783 100.814L230.592 100.86L229.787 100.769C229.791 100.776 229.76 100.925 229.756 101.211C229.753 103.219 230.458 105.124 231.608 106.731C233.345 109.151 236.029 111.006 239.265 112.311C242.501 113.609 246.316 114.338 250.403 114.338C255.858 114.335 260.824 113.048 264.585 110.819C266.463 109.704 268.047 108.345 269.201 106.731C270.351 105.124 271.056 103.219 271.056 101.211C271.053 101.02 271.037 100.891 271.033 100.826L271.026 100.769L270.209 100.86L271.03 100.814L271.026 100.769L270.209 100.86L271.03 100.814C270.964 99.6654 270.01 98.7684 268.86 98.7684V100.933Z" fill="#E7E7E7"/>
<path d="M231.904 100.933C231.907 101.025 231.93 101.117 231.93 101.212C231.93 107.27 223.657 112.178 213.454 112.178C203.248 112.178 194.974 107.27 194.974 101.212C194.974 101.117 194.997 101.025 195.001 100.933H231.904Z" fill="white"/>
<path d="M231.904 100.933L229.737 101.089C229.745 101.242 229.76 101.326 229.764 101.345V101.349L230.983 101.211H229.757C229.757 101.291 229.764 101.337 229.764 101.349L230.983 101.211H229.757C229.753 102.227 229.423 103.211 228.702 104.227C227.633 105.742 225.635 107.235 222.97 108.296C220.31 109.368 217.012 110.017 213.454 110.017C208.7 110.017 204.425 108.853 201.5 107.105C200.035 106.238 198.916 105.235 198.199 104.227C197.482 103.211 197.152 102.227 197.144 101.211H195.822L197.141 101.322L197.144 101.211H195.822L197.141 101.322L196.374 101.257L197.141 101.333V101.322L196.374 101.257L197.141 101.333V101.326C197.144 101.288 197.164 101.185 197.167 101.009L195.001 100.933V103.093H231.904V100.933V98.7684H195.001C193.832 98.7684 192.866 99.6921 192.827 100.853L193.935 100.891L192.831 100.78L192.827 100.853L193.935 100.891L192.831 100.78V100.795C192.827 100.841 192.804 100.982 192.804 101.211C192.801 103.219 193.502 105.124 194.652 106.731C196.393 109.151 199.077 111.01 202.309 112.311C205.545 113.609 209.36 114.338 213.454 114.338C218.906 114.335 223.868 113.048 227.633 110.823C229.507 109.704 231.098 108.345 232.249 106.731C233.403 105.124 234.104 103.219 234.101 101.211C234.101 101.005 234.081 100.868 234.074 100.795L234.066 100.738L233.288 100.83L234.07 100.772L234.066 100.738L233.288 100.83L234.07 100.772C233.985 99.6425 233.042 98.7684 231.904 98.7684V100.933Z" fill="#E7E7E7"/>
<path d="M194.951 100.933C194.955 101.025 194.974 101.117 194.974 101.212C194.974 107.27 186.701 112.178 176.494 112.178C166.292 112.178 158.022 107.27 158.022 101.212C158.022 101.117 158.041 101.025 158.041 100.933H194.951Z" fill="white"/>
<path d="M194.951 100.933L192.781 101.047C192.789 101.2 192.804 101.288 192.808 101.314V101.326L193.928 101.211H192.804L192.808 101.326L193.928 101.211H192.804C192.8 102.227 192.467 103.211 191.75 104.227C190.68 105.742 188.683 107.235 186.014 108.296C183.357 109.368 180.06 110.017 176.494 110.017C171.744 110.017 167.473 108.853 164.548 107.105C163.083 106.238 161.963 105.238 161.247 104.227C160.53 103.211 160.2 102.227 160.196 101.211H158.942L160.192 101.303L160.196 101.211H158.942L160.192 101.303L159.602 101.261L160.192 101.314V101.303L159.602 101.261L160.192 101.314L160.2 101.23C160.204 101.173 160.215 101.082 160.215 100.959L158.041 100.933V103.093H194.951V100.933V98.7684H158.041C156.857 98.7684 155.887 99.7188 155.871 100.902L157.06 100.917L155.871 100.818V100.902L157.06 100.917L155.871 100.818L156.14 100.837L155.871 100.814V100.818L156.14 100.837L155.871 100.814C155.875 100.822 155.852 100.956 155.848 101.211C155.844 103.219 156.55 105.124 157.704 106.731C159.437 109.151 162.125 111.006 165.357 112.311C168.592 113.609 172.407 114.338 176.494 114.338C181.95 114.335 186.915 113.048 190.673 110.819C192.555 109.704 194.142 108.345 195.296 106.731C196.447 105.124 197.152 103.219 197.144 101.211C197.144 101.02 197.133 100.891 197.125 100.826L197.118 100.769L196.309 100.86L197.121 100.814L197.118 100.769L196.309 100.86L197.121 100.814C197.056 99.6654 196.105 98.7684 194.951 98.7684V100.933Z" fill="#E7E7E7"/>
<path d="M157.999 100.933C158.003 101.025 158.022 101.117 158.022 101.212C158.022 107.27 149.752 112.178 139.542 112.178C129.34 112.178 121.07 107.27 121.07 101.212C121.07 101.117 121.085 101.025 121.093 100.933H157.999Z" fill="white"/>
<path d="M157.999 100.933L155.825 100.971C155.833 101.177 155.848 101.295 155.852 101.333L155.913 101.33H155.856L155.852 101.333L155.913 101.33H155.856L157.228 101.211H155.848L155.856 101.33L157.228 101.211H155.848C155.844 102.227 155.519 103.211 154.798 104.227C153.732 105.742 151.727 107.235 149.062 108.296C146.405 109.368 143.108 110.017 139.542 110.017C134.792 110.017 130.517 108.853 127.592 107.105C126.127 106.238 125.007 105.238 124.29 104.227C123.574 103.211 123.244 102.227 123.24 101.211H121.933L123.236 101.318L123.24 101.211H121.933L123.236 101.318L122.477 101.253L123.236 101.33V101.318L122.477 101.253L123.236 101.33V101.322C123.24 101.288 123.255 101.188 123.263 101.02L121.093 100.933V103.093H157.999V100.933V98.7684H121.093C119.924 98.7684 118.969 99.6807 118.919 100.841L119.977 100.887L118.927 100.776L118.919 100.841L119.977 100.887L118.927 100.776L118.923 100.799C118.915 100.849 118.896 100.986 118.896 101.211C118.892 103.219 119.594 105.124 120.748 106.731C122.481 109.151 125.168 111.006 128.401 112.311C131.636 113.609 135.451 114.338 139.542 114.338C144.994 114.335 149.963 113.048 153.724 110.823C155.603 109.704 157.19 108.345 158.34 106.731C159.494 105.124 160.2 103.219 160.196 101.211C160.196 100.994 160.173 100.86 160.169 100.803L160.165 100.78L159.54 100.856L160.169 100.799L160.165 100.78L159.54 100.856L160.169 100.799L158.793 100.917L160.173 100.891L160.169 100.799L158.793 100.917L160.173 100.891C160.15 99.7112 159.188 98.7684 157.999 98.7684V100.933Z" fill="#E7E7E7"/>
<path d="M121.047 100.933C121.047 101.025 121.07 101.117 121.07 101.212C121.07 107.27 112.796 112.178 102.59 112.178C92.3876 112.178 84.1138 107.27 84.1138 101.212C84.1138 101.117 84.1368 101.025 84.1407 100.933H121.047Z" fill="white"/>
<path d="M121.047 100.933L118.877 101.047C118.881 101.2 118.896 101.288 118.9 101.314V101.326L120.019 101.211H118.896L118.9 101.326L120.019 101.211H118.896C118.892 102.227 118.562 103.211 117.842 104.227C116.772 105.742 114.774 107.235 112.11 108.296C109.449 109.368 106.152 110.017 102.59 110.017C97.8396 110.017 93.5646 108.853 90.6393 107.105C89.1747 106.238 88.0552 105.238 87.342 104.227C86.6212 103.211 86.2915 102.227 86.2877 101.211H85.0263L86.2838 101.307L86.2877 101.211H85.0263L86.2838 101.307L85.8314 101.272L86.2838 101.322V101.307L85.8314 101.272L86.2838 101.322C86.2838 101.311 86.2992 101.219 86.3068 101.047L84.1406 100.933V103.093H121.047V100.933V98.7684H84.1406C82.9828 98.7684 82.0358 99.6654 81.9706 100.814L82.7757 100.86L81.9744 100.769L81.9706 100.814L82.7757 100.86L81.9744 100.769C81.9744 100.776 81.9476 100.925 81.9437 101.211C81.9399 103.219 82.6454 105.124 83.7956 106.731C85.5324 109.151 88.2162 111.006 91.4483 112.311C94.6842 113.609 98.499 114.338 102.59 114.338C108.042 114.335 113.007 113.048 116.768 110.819C118.647 109.704 120.234 108.345 121.388 106.731C122.538 105.124 123.244 103.219 123.24 101.211C123.24 101.02 123.225 100.891 123.213 100.826L123.209 100.769L122.4 100.86L123.213 100.814L123.209 100.769L122.4 100.86L123.213 100.814C123.152 99.6654 122.197 98.7684 121.047 98.7684V100.933Z" fill="#E7E7E7"/>
<path d="M84.087 100.933C84.0947 101.025 84.1138 101.117 84.1138 101.212C84.1138 107.27 75.84 112.178 65.6339 112.178C55.4316 112.178 47.1578 107.27 47.1578 101.212C47.1578 101.117 47.1808 101.025 47.1846 100.933H84.087Z" fill="white"/>
<path d="M84.087 100.933L81.9169 101.032C81.9284 101.215 81.9476 101.326 81.9476 101.356L81.9515 101.36L83.2205 101.211H81.9438C81.9438 101.299 81.9476 101.356 81.9515 101.36L83.2205 101.211H81.9438C81.94 102.227 81.6102 103.211 80.8894 104.227C79.8197 105.742 77.8222 107.235 75.1537 108.296C72.4929 109.368 69.1995 110.017 65.6339 110.017C60.8835 110.017 56.6125 108.853 53.6833 107.105C52.2187 106.238 51.0991 105.235 50.3822 104.227C49.6652 103.211 49.3355 102.227 49.3317 101.211H47.9437L49.3278 101.333L49.3317 101.211H47.9437L49.3278 101.333L48.7412 101.28L49.324 101.356L49.3278 101.333L48.7412 101.28L49.324 101.356C49.324 101.341 49.3432 101.23 49.3547 101.02L47.1846 100.933V103.093H84.087V100.933V98.7684H47.1846C46.0191 98.7684 45.0606 99.6807 45.0107 100.841L46.1993 100.891L45.0184 100.761L45.0107 100.841L46.1993 100.891L45.0184 100.761L45.1142 100.769L45.0184 100.757V100.761L45.1142 100.769L45.0184 100.757C45.0184 100.772 44.9877 100.925 44.9839 101.211C44.9839 103.219 45.6855 105.124 46.8395 106.731C48.5725 109.151 51.2602 111.006 54.4922 112.311C57.732 113.609 61.543 114.338 65.6339 114.338C71.0897 114.335 76.0509 113.048 79.8121 110.823C81.6946 109.704 83.2819 108.345 84.4359 106.731C85.5861 105.124 86.2916 103.219 86.2877 101.211C86.2877 100.99 86.2647 100.849 86.2571 100.788L86.2532 100.753V100.746L85.126 100.887L86.2609 100.83L86.2532 100.746L85.126 100.887L86.2609 100.83C86.2072 99.6807 85.2487 98.7684 84.087 98.7684V100.933Z" fill="#E7E7E7"/>
<path d="M47.1386 100.933C47.1386 101.025 47.1577 101.117 47.1577 101.212C47.1577 107.27 38.8878 112.178 28.6816 112.178C18.4793 112.178 10.2094 107.27 10.2094 101.212C10.2094 101.117 10.2247 101.025 10.2324 100.933H47.1386Z" fill="white"/>
<path d="M47.1386 100.933L44.9647 100.971C44.9685 101.162 44.9839 101.276 44.9877 101.314L44.9915 101.33L46.1417 101.211H44.9839C44.9839 101.291 44.9915 101.33 44.9915 101.33L46.1417 101.211H44.9839C44.9839 102.227 44.6542 103.211 43.9334 104.227C42.8675 105.742 40.8661 107.235 38.2015 108.296C35.5407 109.368 32.2473 110.017 28.6816 110.017C23.9313 110.017 19.6564 108.853 16.731 107.105C15.2664 106.238 14.1469 105.235 13.4299 104.227C12.713 103.211 12.3832 102.227 12.3794 101.211H11.118L12.3794 101.307V101.211H11.118L12.3794 101.307L11.927 101.272L12.3756 101.322L12.3794 101.307L11.927 101.272L12.3756 101.322C12.3756 101.311 12.3909 101.219 12.4024 101.047L10.2324 100.933V103.093H47.1386V100.933V98.7684H10.2324C9.07833 98.7684 8.12366 99.6654 8.06232 100.814L8.86746 100.86L8.06232 100.769V100.814L8.86746 100.86L8.06232 100.769C8.06615 100.776 8.03548 100.925 8.03548 101.211C8.03164 103.219 8.73327 105.124 9.88731 106.731C11.6203 109.151 14.3079 111.006 17.54 112.311C20.7759 113.609 24.5946 114.338 28.6816 114.338C34.1374 114.335 39.0987 113.048 42.8598 110.819C44.7385 109.704 46.3258 108.345 47.4798 106.731C48.63 105.124 49.3355 103.219 49.3316 101.211C49.3316 101.005 49.3125 100.879 49.3086 100.826L49.3048 100.799L48.1239 100.914L49.3086 100.891L49.3048 100.799L48.1239 100.914L49.3086 100.891C49.2856 99.7112 48.3233 98.7684 47.1386 98.7684V100.933Z" fill="#E7E7E7"/>
<path d="M220.758 5.56985H25.7793V36.9541H253.248V5.56985H220.758Z" fill="white"/>
<path d="M220.758 5.56957V3.40909H25.7793C25.208 3.40909 24.6483 3.63811 24.2457 4.03891C23.8354 4.44734 23.6054 5.00464 23.6054 5.56957V36.9538C23.6054 37.5225 23.8354 38.0798 24.2457 38.4806C24.6483 38.8852 25.208 39.1142 25.7793 39.1142H253.248C253.819 39.1142 254.379 38.8852 254.781 38.4806C255.188 38.0798 255.418 37.5225 255.418 36.9538V5.56957C255.418 5.00464 255.188 4.44734 254.781 4.03891C254.379 3.63811 253.819 3.40909 253.248 3.40909H220.758V7.73386H251.07V34.7895H25.7793V36.9538H27.9532V5.56957H25.7793V7.73386H220.758V5.56957Z" fill="#E7E7E7"/>
<path d="M8.29999 219.21C8.29999 221.118 9.8566 222.672 11.7774 222.672H267.315C269.232 222.672 270.792 221.118 270.792 219.21V201.91C270.792 199.998 269.232 198.448 267.315 198.448H11.7774C9.8566 198.448 8.29999 199.998 8.29999 201.91V219.21Z" fill="white"/>
<path d="M8.3 219.209H6.12612C6.12228 220.755 6.76256 222.175 7.78241 223.183C8.79459 224.198 10.2208 224.832 11.7775 224.832H267.315C268.867 224.832 270.294 224.198 271.306 223.183C272.326 222.175 272.962 220.755 272.962 219.209V201.91C272.962 200.36 272.326 198.944 271.306 197.933C270.294 196.917 268.867 196.284 267.315 196.288H11.7775C10.2208 196.284 8.79459 196.917 7.78241 197.933C6.76256 198.944 6.12228 200.36 6.12612 201.91V219.209H10.4739V201.91C10.4739 201.54 10.6157 201.235 10.8535 200.99C11.0988 200.75 11.4094 200.612 11.7775 200.612H267.315C267.683 200.612 267.993 200.75 268.235 200.99C268.476 201.235 268.614 201.54 268.618 201.91V219.209C268.614 219.576 268.476 219.881 268.235 220.125C267.993 220.366 267.683 220.503 267.315 220.507H11.7775C11.4094 220.503 11.0988 220.366 10.8535 220.125C10.6157 219.881 10.4739 219.576 10.4739 219.209H8.3Z" fill="#E7E7E7"/>
<path d="M8.29999 314.366C8.29999 316.274 9.8566 317.824 11.7774 317.824H267.315C269.232 317.824 270.792 316.274 270.792 314.366V297.063C270.792 295.151 269.232 293.605 267.315 293.605H11.7774C9.8566 293.605 8.29999 295.151 8.29999 297.063V314.366Z" fill="white"/>
<path d="M8.3 314.366H6.12612C6.12228 315.908 6.76256 317.328 7.78241 318.34C8.79459 319.351 10.2208 319.989 11.7775 319.989H267.315C268.867 319.989 270.294 319.351 271.306 318.34C272.326 317.328 272.962 315.908 272.962 314.366V297.063C272.962 295.517 272.326 294.097 271.306 293.086C270.294 292.074 268.867 291.437 267.315 291.441H11.7775C10.2208 291.437 8.79459 292.074 7.78241 293.086C6.76256 294.097 6.12228 295.517 6.12612 297.063V314.366H10.4739V297.063C10.4739 296.697 10.6157 296.388 10.8535 296.147C11.0988 295.907 11.4094 295.765 11.7775 295.765H267.315C267.683 295.765 267.993 295.907 268.235 296.147C268.476 296.388 268.614 296.697 268.618 297.063V314.366C268.614 314.729 268.476 315.038 268.235 315.282C267.993 315.519 267.683 315.66 267.315 315.664H11.7775C11.4094 315.66 11.0988 315.519 10.8535 315.282C10.6157 315.038 10.4739 314.729 10.4739 314.366H8.3Z" fill="#E7E7E7"/>
<path d="M51.92 268.128L54.16 254.028H55.6L62.52 265.788L62.12 265.708L63.96 254.028H65.7L63.46 268.128H62.04L55.1 256.368L55.5 256.448L53.66 268.128H51.92ZM71.0609 268.308C70.0476 268.308 69.1943 268.095 68.5009 267.668C67.8209 267.242 67.3409 266.622 67.0609 265.808C66.7943 264.982 66.7476 263.988 66.9209 262.828C67.0943 261.762 67.4343 260.862 67.9409 260.128C68.4476 259.382 69.0743 258.822 69.8209 258.448C70.5809 258.075 71.4276 257.888 72.3609 257.888C73.4009 257.888 74.2609 258.102 74.9409 258.528C75.6209 258.955 76.1009 259.582 76.3809 260.408C76.6609 261.222 76.7076 262.202 76.5209 263.348C76.3476 264.428 76.0076 265.335 75.5009 266.068C74.9943 266.802 74.3609 267.362 73.6009 267.748C72.8409 268.122 71.9943 268.308 71.0609 268.308ZM71.1809 266.868C72.0743 266.868 72.8343 266.555 73.4609 265.928C74.1009 265.288 74.5209 264.362 74.7209 263.148C74.9209 261.882 74.7876 260.935 74.3209 260.308C73.8676 259.668 73.1743 259.348 72.2409 259.348C71.3476 259.348 70.5876 259.662 69.9609 260.288C69.3476 260.915 68.9409 261.828 68.7409 263.028C68.5409 264.308 68.6609 265.268 69.1009 265.908C69.5409 266.548 70.2343 266.868 71.1809 266.868ZM83.6778 268.128L85.9178 254.028H95.0378L94.7778 255.548H87.4578L86.7378 260.208H93.5978L93.3578 261.728H86.4978L85.7178 266.608H93.0178L92.7978 268.128H83.6778ZM98.0589 268.128L95.3589 258.068H97.2389L99.3789 266.708H98.8189L103.739 258.068H105.679L99.7589 268.128H98.0589ZM110.426 268.308C109.293 268.308 108.36 268.082 107.626 267.628C106.893 267.175 106.373 266.535 106.066 265.708C105.773 264.868 105.713 263.888 105.886 262.768C106.046 261.742 106.366 260.868 106.846 260.148C107.326 259.415 107.94 258.855 108.686 258.468C109.433 258.082 110.28 257.888 111.226 257.888C112.16 257.888 112.926 258.095 113.526 258.508C114.14 258.908 114.573 259.468 114.826 260.188C115.093 260.908 115.153 261.742 115.006 262.688L114.906 263.288H107.226L107.386 262.208H113.846L113.486 262.488C113.646 261.435 113.526 260.628 113.126 260.068C112.726 259.495 112.06 259.208 111.126 259.208C110.46 259.208 109.88 259.362 109.386 259.668C108.906 259.962 108.52 260.368 108.226 260.888C107.933 261.395 107.746 261.982 107.666 262.648L107.586 263.148C107.426 264.335 107.6 265.255 108.106 265.908C108.613 266.548 109.453 266.868 110.626 266.868C111.186 266.868 111.74 266.782 112.286 266.608C112.833 266.435 113.346 266.148 113.826 265.748L114.426 267.008C113.893 267.422 113.28 267.742 112.586 267.968C111.893 268.195 111.173 268.308 110.426 268.308ZM116.525 268.128L117.745 260.448C117.811 260.062 117.858 259.668 117.885 259.268C117.925 258.868 117.951 258.468 117.965 258.068H119.725L119.565 260.228L119.305 260.248C119.705 259.475 120.251 258.888 120.945 258.488C121.638 258.088 122.431 257.888 123.325 257.888C124.551 257.888 125.405 258.242 125.885 258.948C126.365 259.655 126.498 260.682 126.285 262.028L125.325 268.128H123.505L124.465 262.048C124.625 261.088 124.545 260.402 124.225 259.988C123.918 259.575 123.378 259.368 122.605 259.368C121.711 259.368 120.965 259.642 120.365 260.188C119.778 260.735 119.411 261.462 119.265 262.368L118.345 268.128H116.525ZM132.162 268.308C131.055 268.308 130.269 268.015 129.802 267.428C129.349 266.828 129.209 265.955 129.382 264.808L130.242 259.468H128.282L128.502 258.068H130.462L130.902 255.368L132.802 254.868L132.282 258.068H135.122L134.902 259.468H132.062L131.242 264.608C131.135 265.382 131.189 265.942 131.402 266.288C131.615 266.622 131.989 266.788 132.522 266.788C132.775 266.788 133.002 266.768 133.202 266.728C133.402 266.675 133.589 266.615 133.762 266.548L133.522 268.048C133.309 268.128 133.089 268.188 132.862 268.228C132.649 268.282 132.415 268.308 132.162 268.308ZM141.264 268.128L142.644 259.468H140.684L140.904 258.068H143.364L142.784 258.528L143.084 256.748C143.258 255.628 143.684 254.782 144.364 254.208C145.044 253.622 145.958 253.328 147.104 253.328C147.371 253.328 147.638 253.355 147.904 253.408C148.184 253.448 148.418 253.508 148.604 253.588L148.364 255.068C148.218 255.002 148.038 254.948 147.824 254.908C147.611 254.868 147.391 254.848 147.164 254.848C146.764 254.848 146.404 254.928 146.084 255.088C145.764 255.248 145.498 255.488 145.284 255.808C145.071 256.115 144.924 256.522 144.844 257.028L144.624 258.448L144.404 258.068H147.444L147.224 259.468H144.464L143.084 268.128H141.264ZM151.705 268.308C150.692 268.308 149.839 268.095 149.145 267.668C148.465 267.242 147.985 266.622 147.705 265.808C147.439 264.982 147.392 263.988 147.565 262.828C147.739 261.762 148.079 260.862 148.585 260.128C149.092 259.382 149.719 258.822 150.465 258.448C151.225 258.075 152.072 257.888 153.005 257.888C154.045 257.888 154.905 258.102 155.585 258.528C156.265 258.955 156.745 259.582 157.025 260.408C157.305 261.222 157.352 262.202 157.165 263.348C156.992 264.428 156.652 265.335 156.145 266.068C155.639 266.802 155.005 267.362 154.245 267.748C153.485 268.122 152.639 268.308 151.705 268.308ZM151.825 266.868C152.719 266.868 153.479 266.555 154.105 265.928C154.745 265.288 155.165 264.362 155.365 263.148C155.565 261.882 155.432 260.935 154.965 260.308C154.512 259.668 153.819 259.348 152.885 259.348C151.992 259.348 151.232 259.662 150.605 260.288C149.992 260.915 149.585 261.828 149.385 263.028C149.185 264.308 149.305 265.268 149.745 265.908C150.185 266.548 150.879 266.868 151.825 266.868ZM158.829 268.128L160.029 260.528C160.096 260.128 160.149 259.722 160.189 259.308C160.242 258.882 160.276 258.468 160.289 258.068H162.049L161.889 260.588L161.549 260.608C161.776 259.995 162.082 259.488 162.469 259.088C162.856 258.675 163.289 258.375 163.769 258.188C164.262 257.988 164.769 257.888 165.289 257.888C165.462 257.888 165.629 257.895 165.789 257.908C165.949 257.922 166.102 257.948 166.249 257.988L165.949 259.608C165.776 259.542 165.602 259.502 165.429 259.488C165.256 259.462 165.056 259.448 164.829 259.448C164.242 259.448 163.722 259.575 163.269 259.828C162.816 260.082 162.442 260.428 162.149 260.868C161.856 261.295 161.669 261.782 161.589 262.328L160.649 268.128H158.829ZM175.105 268.128L177.105 255.608H172.205L172.465 254.028H184.125L183.865 255.608H178.965L176.985 268.128H175.105ZM186.51 268.308C185.497 268.308 184.643 268.095 183.95 267.668C183.27 267.242 182.79 266.622 182.51 265.808C182.243 264.982 182.197 263.988 182.37 262.828C182.543 261.762 182.883 260.862 183.39 260.128C183.897 259.382 184.523 258.822 185.27 258.448C186.03 258.075 186.877 257.888 187.81 257.888C188.85 257.888 189.71 258.102 190.39 258.528C191.07 258.955 191.55 259.582 191.83 260.408C192.11 261.222 192.157 262.202 191.97 263.348C191.797 264.428 191.457 265.335 190.95 266.068C190.443 266.802 189.81 267.362 189.05 267.748C188.29 268.122 187.443 268.308 186.51 268.308ZM186.63 266.868C187.523 266.868 188.283 266.555 188.91 265.928C189.55 265.288 189.97 264.362 190.17 263.148C190.37 261.882 190.237 260.935 189.77 260.308C189.317 259.668 188.623 259.348 187.69 259.348C186.797 259.348 186.037 259.662 185.41 260.288C184.797 260.915 184.39 261.828 184.19 263.028C183.99 264.308 184.11 265.268 184.55 265.908C184.99 266.548 185.683 266.868 186.63 266.868ZM197.654 268.308C196.734 268.308 195.96 268.095 195.334 267.668C194.707 267.228 194.267 266.602 194.014 265.788C193.76 264.962 193.72 263.975 193.894 262.828C194.16 261.215 194.76 259.988 195.694 259.148C196.627 258.308 197.747 257.888 199.054 257.888C199.934 257.888 200.667 258.108 201.254 258.548C201.854 258.988 202.214 259.595 202.334 260.368H202.134L203.234 253.408H205.054L202.714 268.128H200.914L201.274 265.788H201.574C201.227 266.575 200.72 267.195 200.054 267.648C199.387 268.088 198.587 268.308 197.654 268.308ZM198.174 266.868C199.067 266.868 199.834 266.555 200.474 265.928C201.114 265.288 201.534 264.362 201.734 263.148C201.934 261.882 201.8 260.935 201.334 260.308C200.88 259.668 200.18 259.348 199.234 259.348C198.34 259.348 197.58 259.662 196.954 260.288C196.327 260.915 195.914 261.828 195.714 263.028C195.514 264.308 195.634 265.268 196.074 265.908C196.527 266.548 197.227 266.868 198.174 266.868ZM209.763 268.308C208.843 268.308 208.07 268.095 207.443 267.668C206.816 267.228 206.376 266.602 206.123 265.788C205.87 264.962 205.83 263.975 206.003 262.828C206.27 261.215 206.87 259.988 207.803 259.148C208.736 258.308 209.856 257.888 211.163 257.888C212.043 257.888 212.776 258.108 213.363 258.548C213.963 258.988 214.323 259.595 214.443 260.368L214.223 260.388L214.823 258.068H216.563C216.47 258.468 216.37 258.868 216.263 259.268C216.17 259.668 216.09 260.062 216.023 260.448L214.823 268.128H213.003L213.383 265.788H213.683C213.336 266.575 212.83 267.195 212.163 267.648C211.496 268.088 210.696 268.308 209.763 268.308ZM210.283 266.868C211.176 266.868 211.943 266.555 212.583 265.928C213.223 265.288 213.643 264.362 213.843 263.148C214.043 261.882 213.91 260.935 213.443 260.308C212.99 259.668 212.29 259.348 211.343 259.348C210.45 259.348 209.69 259.662 209.063 260.288C208.436 260.915 208.023 261.828 207.823 263.028C207.623 264.308 207.743 265.268 208.183 265.908C208.636 266.548 209.336 266.868 210.283 266.868ZM216.735 272.668L216.435 271.188C217.088 271.042 217.635 270.868 218.075 270.668C218.528 270.482 218.921 270.235 219.255 269.928C219.588 269.622 219.895 269.235 220.175 268.768L220.875 267.568L220.775 268.328L218.015 258.068H219.915L222.075 266.688H221.535L226.395 258.068H228.355L222.015 268.908C221.628 269.562 221.235 270.108 220.835 270.548C220.435 270.988 220.021 271.348 219.595 271.628C219.181 271.908 218.741 272.128 218.275 272.288C217.808 272.448 217.295 272.575 216.735 272.668Z" fill="#B6B6B6"/>
</g>
<defs>
<clipPath id="clip0_10_64">
<rect width="279" height="320" fill="white"/>
</clipPath>
</defs>
</svg>
